<svg version="1.2" xmlns="http://www.w3.org/2000/svg" viewBox="0 0 1042 317" width="286" height="100">
	<title>Logo_Horisontal_RGB</title>
	<style>
		.s0 { fill: #dfb741 }
		.s1 { fill: #4663ab }
		.s2 { fill: #4563ab }
		.s3 { fill: #7c7c7c }
	</style>
	<g id="Icon">
		<path id="Shape 1" fill-rule="evenodd" class="s0" d="m159.3 315.4c-86.7 0-156.9-70.2-156.9-156.8 0-86.7 70.2-156.9 156.9-156.9 86.7 0 157 70.2 157 156.9 0 86.6-70.3 156.8-157 156.8zm0-303.1c-80.8 0-146.3 65.5-146.3 146.3 0 80.7 65.5 146.2 146.3 146.2 80.8 0 146.4-65.5 146.4-146.2 0-80.8-65.6-146.3-146.4-146.3z"/>
		<path id="Rounded Rectangle 4" fill-rule="evenodd" class="s1" d="m249.3 148.3c-10.8 0-19.5-8.8-19.5-19.5 0-10.7 8.7-19.5 19.5-19.5 10.7 0 19.5 8.8 19.5 19.5 0 10.7-8.8 19.5-19.5 19.5zm-60.4 58c-10.8 0-19.5-8.7-19.5-19.4 0-10.8 8.7-19.5 19.5-19.5 10.7 0 19.5 8.7 19.5 19.5 0 10.7-8.8 19.4-19.5 19.4zm0-58c-10.8 0-19.5-8.8-19.5-19.5 0-10.7 8.7-19.5 19.5-19.5 10.7 0 19.5 8.8 19.5 19.5 0 10.7-8.8 19.5-19.5 19.5zm-60.3 58c-10.8 0-19.5-8.7-19.5-19.4 0-10.8 8.7-19.5 19.5-19.5 10.7 0 19.4 8.7 19.4 19.5 0 10.7-8.7 19.4-19.4 19.4zm0-58c-10.8 0-19.5-8.8-19.5-19.5 0-10.7 8.7-19.5 19.5-19.5 10.7 0 19.4 8.8 19.4 19.5 0 10.7-8.7 19.5-19.4 19.5zm-60.4 58c-10.8 0-19.5-8.7-19.5-19.4 0-10.8 8.7-19.5 19.5-19.5 10.7 0 19.5 8.7 19.5 19.5 0 10.7-8.8 19.4-19.5 19.4z"/>
	</g>
	<g id="Text">
		<path id="EXPERT" class="s2" aria-label="EXPERT"  d="m399.9 164h-16.9v-64.2h16.9zm27.1 0h-29v-13.4h29zm-1.9-26h-27.1v-13.4h27.1zm1.4-24.9h-28.5v-13.3h28.5zm24.5 50.8h-18.7l22.8-34.1 0.2 1.4-21.1-31.5h19.2l11.8 18.6h2.4l11.4-18.6h18.7l-21 31.7-0.3-1.4 23.5 33.9h-19.2l-14-21.2h-2.5zm83-17h-10.8v-14.1h11.3q3.2 0 5.5-1.2 2.4-1.2 3.7-3.4 1.3-2.2 1.3-5.2 0-3.1-1.3-5.3-1.3-2.2-3.7-3.3-2.3-1.2-5.5-1.2h-11.3v-14h10.8q8.8 0 15.2 2.8 6.5 2.7 10 7.9 3.5 5.2 3.5 12.4v1.4q0 7.1-3.5 12.3-3.5 5.2-10 8-6.4 2.9-15.2 2.9zm-9 17h-17.5v-64.7h17.5zm63.1 0h-16.9v-64.3h16.9zm27.1 0h-29v-13.4h29zm-1.9-25.9h-27.1v-13.4h27.1zm1.4-24.9h-28.5v-13.4h28.5zm29.7 50.9h-17.5v-64.8h17.5zm44.1 0h-20.2l-19.3-27.3h19.1zm-33.1-19.7h-15.4v-12.6h16.5q3.1 0 5.3-1.1 2.3-1.1 3.5-3.3 1.3-2.1 1.3-4.9 0-2.9-1.3-5-1.2-2.1-3.5-3.3-2.2-1.1-5.3-1.1h-16.5v-13.7h15.4q9 0 15.5 2.5 6.5 2.5 9.9 7.4 3.5 4.9 3.5 12.1v1.4q0 7.2-3.6 12-3.4 4.8-9.9 7.3-6.4 2.3-15.4 2.3zm70.4 19.7h-17.6v-51.7h17.6zm18.8-50h-55.2v-14.2h55.2z"/>
		<path id="CONT" class="s0" aria-label="CONT"  d="m783.3 165.7q-9.4 0-16-3-6.7-3.1-11-8-4.2-5-6.3-10.8-2-5.8-2-11.2v-2q0-5.9 2.1-11.8 2.1-5.9 6.3-10.6 4.4-4.8 10.9-7.6 6.5-2.9 15.5-2.9 9.3 0 16.5 3.3 7.1 3.2 11.4 9 4.3 5.8 5 13.5h-15.5q-0.6-3.9-3-6.6-2.4-2.7-6.1-4.2-3.7-1.5-8.3-1.5-4.6 0-8.2 1.5-3.6 1.5-6 4.2-2.4 2.7-3.7 6.5-1.2 3.7-1.2 8.3 0 4.5 1.2 8.3 1.3 3.7 3.8 6.5 2.5 2.7 6.2 4.2 3.7 1.4 8.4 1.4 7.1 0 12-3.2 5-3.3 6-9h15.5q-0.9 7-5.1 12.9-4.1 5.8-11.4 9.3-7.1 3.5-17 3.5zm76.7 0q-9.3 0-16.3-3-6.9-3.1-11.4-8-4.5-5-6.8-10.9-2.1-5.8-2.1-11.1v-2q0-5.9 2.2-11.8 2.4-5.9 7-10.6 4.6-4.8 11.5-7.6 6.9-2.9 15.9-2.9 9 0 15.9 2.9 6.9 2.8 11.5 7.6 4.6 4.7 7 10.6 2.3 5.9 2.3 11.8v2q0 5.3-2.2 11.1-2.3 5.9-6.8 10.9-4.5 4.9-11.5 8-6.9 3-16.2 3zm0-13.5q4.9 0 8.8-1.6 3.9-1.6 6.6-4.4 2.9-2.8 4.3-6.5 1.4-3.7 1.4-7.9 0-4.5-1.5-8.2-1.4-3.8-4.2-6.5-2.8-2.8-6.6-4.3-3.9-1.5-8.8-1.5-4.9 0-8.8 1.5-3.8 1.5-6.6 4.3-2.8 2.7-4.2 6.5-1.4 3.7-1.4 8.2 0 4.2 1.4 7.9 1.4 3.7 4.2 6.5 2.8 2.8 6.6 4.4 3.9 1.6 8.8 1.6zm62.7 11.8h-14.3v-64.2h25.3l25.9 52.5h3.2l-1.9 1.6v-54.1h14.5v64.2h-25.5l-25.9-52.5h-3.2l1.9-1.6zm97.3 0h-15.5v-53.4h15.5zm19.4-51.7h-54.2v-12.6h54.2z"/>
	</g>
	<path id="Experiență, eficiență, rezulta" class="s3" aria-label="Experiență, eficiență, rezultaTE"  d="m389.6 209h-6.5v-25.9h6.5zm10.4 0h-11.1v-5.3h11.1zm-0.8-10.5h-10.3v-5.4h10.3zm0.6-10h-10.9v-5.4h10.9zm8.9 20.5h-7.1l8.7-13.7 0.1 0.5-8.1-12.7h7.4l4.5 7.5h0.9l4.4-7.5h7.1l-8 12.8-0.1-0.6 9 13.7h-7.4l-5.3-8.5h-1zm31.4-6.9h-4.2v-5.7h4.4q1.2 0 2.1-0.4 0.9-0.5 1.4-1.4 0.5-0.9 0.5-2.1 0-1.2-0.5-2.1-0.5-0.9-1.4-1.4-0.9-0.4-2.1-0.4h-4.4v-5.7h4.2q3.4 0 5.8 1.1 2.5 1.1 3.9 3.2 1.3 2.1 1.3 5v0.6q0 2.8-1.3 4.9-1.4 2.1-3.9 3.3-2.4 1.1-5.8 1.1zm-3.5 6.9h-6.7v-26.1h6.7zm23.8 0h-6.5v-25.9h6.5zm10.4 0h-11.1v-5.3h11.1zm-0.8-10.5h-10.3v-5.4h10.3zm0.6-10h-10.9v-5.4h10.9zm10.9 20.5h-6.7v-26.1h6.7zm16.9 0h-7.7l-7.4-11h7.3zm-12.7-7.9h-5.9v-5.1h6.3q1.2 0 2.1-0.4 0.8-0.5 1.3-1.3 0.5-0.9 0.5-2 0-1.2-0.5-2-0.5-0.9-1.3-1.3-0.9-0.5-2.1-0.5h-6.3v-5.5h5.9q3.5 0 5.9 1 2.5 1 3.9 3 1.3 1.9 1.3 4.8v0.6q0 2.9-1.4 4.8-1.3 2-3.8 3-2.4 0.9-5.9 0.9zm22.1 7.9h-6.7v-25.8h6.7zm11.5 0h-6.5v-25.9h6.5zm10.4 0h-11.1v-5.3h11.1zm-0.8-10.5h-10.3v-5.4h10.3zm0.6-10h-10.9v-5.4h10.9zm10.4 20.5h-6.2v-25.9h11l8.8 20.6h1.3l-0.7 0.7v-21.3h6.2v25.9h-11l-8.8-20.6h-1.3l0.7-0.7zm37.3 0h-6.7v-20.8h6.7zm7.3-20.1h-21.2v-5.7h21.2zm-12.3 31.2h-1.1v-3.1h1.2q1.2 0 1.6-0.5 0.5-0.4 0.5-1.2v-1l0.8 0.1q-0.2 0.5-0.7 0.8-0.5 0.4-1.3 0.4-1 0-1.7-0.6-0.7-0.7-0.7-1.8 0-1.5 1-2.1 0.9-0.6 2.2-0.6 1.8 0 2.8 1.2 1 1.1 1 3.1v0.2q0 2.5-1.5 3.8-1.5 1.3-4.1 1.3zm17.1-11.1h-6.8l8.5-25.9h10.8l8.7 25.9h-6.9l-6.8-21.3 1.9 0.7h-4.8l2-0.7zm14.2-6h-14l2-5.3h10zm-7.1-21.4q-2.3 0-3.9-0.9-1.6-0.8-2.5-2.4-0.8-1.5-0.9-3.6h4.7q0.1 1.2 0.7 1.9 0.6 0.7 1.9 0.7 1.3 0 1.9-0.7 0.7-0.7 0.7-1.9h4.6q-0.1 2.1-0.9 3.6-0.9 1.6-2.5 2.4-1.5 0.9-3.8 0.9zm23.5 22.2l-4.6 11.4-5-1.9 4-11.4zm16.1 5.1h-6.5v-25.9h6.5zm10.4 0h-11.2v-5.4h11.2zm-0.8-10.4h-10.4v-5.4h10.4zm0.5-10h-10.9v-5.4h10.9zm11 20.5h-6.7v-25.9h6.7zm9.1-10h-9.8v-5.4h9.8zm0.4-10.5h-10.2v-5.3h10.2zm10.3 20.4h-6.7v-25.8h6.7zm17.3 0.7q-3.6 0-6.1-1.2-2.6-1.3-4.3-3.2-1.6-2.1-2.4-4.4-0.8-2.3-0.8-4.5v-0.8q0-2.5 0.8-4.8 0.8-2.4 2.5-4.3 1.7-1.9 4.2-3 2.5-1.2 5.9-1.2 3.6 0 6.4 1.4 2.8 1.3 4.5 3.7 1.7 2.4 2 5.5h-6.7q-0.2-1.3-1.1-2.3-0.8-1-2.1-1.5-1.3-0.6-3-0.6-1.5 0-2.8 0.5-1.2 0.6-2.1 1.6-0.8 0.9-1.3 2.3-0.4 1.4-0.4 3.1 0 1.7 0.4 3.1 0.5 1.4 1.4 2.4 0.9 1 2.1 1.5 1.3 0.5 2.9 0.5 2.5 0 4.3-1.2 1.7-1.2 2.1-3.2h6.7q-0.3 2.9-2 5.3-1.6 2.4-4.4 3.9-2.9 1.4-6.7 1.4zm23-0.7h-6.7v-25.9h6.7zm11.5 0h-6.5v-25.8h6.5zm10.4 0h-11.2v-5.4h11.2zm-0.8-10.5h-10.4v-5.3h10.4zm0.5-10.1h-10.9v-5.4h10.9zm10.5 20.5h-6.2v-25.8h11l8.8 20.6h1.2l-0.7 0.6v-21.2h6.3v25.8h-11.1l-8.8-20.6h-1.2l0.7-0.6zm37.3 0h-6.7v-20.9h6.7zm7.2-20.1h-21.2v-5.7h21.2zm-12.2 31.2h-1.1v-3.1h1.2q1.2 0 1.6-0.5 0.4-0.4 0.4-1.2v-0.9l0.9 0.1q-0.3 0.4-0.8 0.8-0.5 0.3-1.3 0.3-1 0-1.7-0.6-0.6-0.6-0.6-1.8 0-1.4 0.9-2 1-0.6 2.3-0.6 1.8 0 2.8 1.1 0.9 1.2 0.9 3.1v0.3q0 2.5-1.5 3.8-1.5 1.2-4 1.2zm17-11.1h-6.7l8.5-25.8h10.7l8.8 25.8h-7l-6.8-21.2 2 0.7h-4.8l1.9-0.7zm14.3-6h-14.1l2-5.4h10zm-7.1-21.4q-2.3 0-3.9-0.8-1.6-0.9-2.4-2.4-0.9-1.6-0.9-3.7h4.7q0 1.3 0.6 1.9 0.6 0.7 1.9 0.7 1.3 0 2-0.7 0.6-0.6 0.7-1.9h4.5q-0.1 2.1-0.9 3.7-0.8 1.5-2.4 2.4-1.6 0.8-3.9 0.8zm23.5 22.3l-4.5 11.3-5-1.9 4-11.4zm16.2 5.1h-6.7v-26.1h6.7zm16.9 0h-7.7l-7.4-11h7.3zm-12.7-7.9h-5.9v-5.1h6.3q1.2 0 2.1-0.4 0.8-0.5 1.3-1.3 0.5-0.9 0.5-2 0-1.2-0.5-2-0.5-0.9-1.3-1.3-0.9-0.5-2.1-0.5h-6.3v-5.5h5.9q3.5 0 5.9 1 2.5 1 3.9 3 1.3 1.9 1.3 4.8v0.6q0 2.9-1.4 4.8-1.3 2-3.8 3-2.4 0.9-5.9 0.9zm21.9 7.9h-6.6v-25.8h6.6zm10.4 0h-11.2v-5.4h11.2zm-0.8-10.4h-10.4v-5.4h10.4zm0.5-10h-10.9v-5.4h10.9zm23.7 20.4h-21v-4.4l12.8-15.8 0.2 0.6-1.2-1.5 0.8 0.7h-12.1v-5.4h20.7v4.4l-12.9 15.8-0.2-0.6 1.2 1.6-0.8-0.7h12.5zm14.7 0.7q-3.8 0-6.4-1.4-2.6-1.4-4-3.9-1.4-2.6-1.4-6v-15.3h6.7v15.4q0 1.5 0.6 2.7 0.6 1.1 1.7 1.7 1.2 0.6 2.8 0.6 1.6 0 2.7-0.6 1.2-0.6 1.7-1.7 0.6-1.1 0.6-2.7v-15.4h6.7v15.3q0 3.4-1.3 6-1.4 2.5-4 3.9-2.6 1.4-6.4 1.4zm22.8-0.7h-6.7v-25.9h6.7zm10 0h-10.7v-5.7h10.7zm12 0h-6.8v-20.9h6.8zm7.2-20.1h-21.2v-5.7h21.2zm4.8 20.1h-6.7l8.4-25.9h10.8l8.7 25.9h-6.9l-6.8-21.2 1.9 0.7h-4.7l1.9-0.7zm14.2-6h-14l2-5.4h10zm19.1 6h-6.8v-20.9h6.8zm7.2-20.1h-21.2v-5.7h21.2zm9.4 20.1h-6.5v-25.8h6.5zm10.4 0h-11.1v-5.4h11.1zm-0.7-10.5h-10.4v-5.4h10.4zm0.5-10h-10.9v-5.4h10.9z"/>
</svg>
