<svg width="513" height="269" viewBox="0 0 513 269" fill="none" xmlns="http://www.w3.org/2000/svg">
<path d="M127.8 155.2H98.4V194H88.4V155.2H8.6V147.8L84.6 54H96L21.4 146.2H88.6V112H98.4V146.2H127.8V155.2Z" fill="#DFB741"/>
<path d="M509.8 155.2H480.4V194H470.4V155.2H390.6V147.8L466.6 54H478L403.4 146.2H470.6V112H480.4V146.2H509.8V155.2Z" fill="#DFB741"/>
<path fill-rule="evenodd" clip-rule="evenodd" d="M335.753 125.382C326.566 125.382 319.116 117.929 319.116 108.741C319.116 99.5496 326.566 92.0967 335.753 92.0967C344.941 92.0967 352.388 99.5496 352.388 108.741C352.391 117.929 344.941 125.382 335.753 125.382ZM284.145 175.073C274.957 175.073 267.51 167.62 267.51 158.429C267.51 149.237 274.96 141.788 284.145 141.788C293.333 141.788 300.783 149.241 300.783 158.429C300.779 167.624 293.333 175.073 284.145 175.073ZM284.145 125.382C274.957 125.382 267.51 117.929 267.51 108.741C267.51 99.5496 274.96 92.0967 284.145 92.0967C293.333 92.0967 300.783 99.5496 300.783 108.741C300.779 117.929 293.333 125.382 284.145 125.382ZM232.611 175.073C223.437 175.073 216.001 167.62 216.001 158.429C216.001 149.237 223.437 141.788 232.611 141.788C241.784 141.788 249.22 149.241 249.22 158.429C249.22 167.624 241.784 175.073 232.611 175.073ZM232.611 125.382C223.437 125.382 216.001 117.929 216.001 108.741C216.001 99.5496 223.437 92.0967 232.611 92.0967C241.784 92.0967 249.22 99.5496 249.22 108.741C249.22 117.929 241.784 125.382 232.611 125.382ZM181.027 175.073C171.839 175.073 164.393 167.62 164.393 158.429C164.393 149.237 171.843 141.788 181.027 141.788C190.215 141.788 197.665 149.241 197.665 158.429C197.661 167.624 190.215 175.073 181.027 175.073Z" fill="#4663AB"/>
<path fill-rule="evenodd" clip-rule="evenodd" d="M258.888 268.377C184.823 268.377 124.777 208.297 124.777 134.188C124.777 60.0795 184.819 0 258.888 0C332.954 0 392.999 60.0795 392.999 134.188C392.999 208.297 332.954 268.377 258.888 268.377ZM258.888 9.0846C189.837 9.0846 133.858 65.0956 133.858 134.188C133.858 203.281 189.837 259.292 258.888 259.292C327.94 259.292 383.918 203.281 383.918 134.188C383.918 65.0956 327.94 9.0846 258.888 9.0846Z" fill="#DFB741"/>
</svg>
